<?xml version="1.0" standalone="no"?>
<!DOCTYPE svg PUBLIC "-//W3C//DTD SVG 20010904//EN"
 "http://www.w3.org/TR/2001/REC-SVG-20010904/DTD/svg10.dtd">
<svg version="1.0" xmlns="http://www.w3.org/2000/svg"
 width="1280.000000pt" height="984.000000pt" viewBox="0 0 1280.000000 984.000000"
 preserveAspectRatio="xMidYMid meet">
<metadata>
Created by potrace 1.15, written by Peter Selinger 2001-2017
</metadata>
<g transform="translate(0.000000,984.000000) scale(0.100000,-0.100000)"
fill="#C15900" stroke="C15900">
<path d="M8090 9830 c-441 -46 -825 -182 -1183 -420 -658 -438 -1071 -1131
-1148 -1930 -14 -149 -6 -462 16 -595 8 -49 14 -93 15 -96 0 -3 -75 -9 -167
-13 -624 -27 -1371 -151 -1959 -326 -284 -85 -450 -113 -669 -113 -247 -1
-428 41 -625 144 -131 68 -212 131 -369 284 -276 269 -425 481 -527 747 -35
91 -101 324 -149 526 -36 149 -48 158 -170 127 -80 -21 -212 -84 -305 -147
-383 -260 -658 -660 -775 -1127 -42 -167 -55 -294 -66 -641 -35 -1036 52
-1831 287 -2638 90 -308 164 -504 266 -707 471 -935 1488 -1815 2691 -2329
724 -310 1423 -481 2257 -553 282 -24 935 -24 1240 0 348 28 624 62 909 113
1461 258 2698 875 3402 1699 733 857 827 1862 261 2768 -192 305 -455 591
-802 870 -24 19 -29 26 -15 23 58 -14 360 -29 575 -28 667 1 982 108 1303 442
134 139 225 265 306 420 74 143 97 212 106 318 12 151 -9 160 -317 136 -336
-26 -569 -9 -830 60 -281 75 -430 166 -637 386 l-115 122 -7 102 c-9 114 -22
214 -44 319 -8 42 -14 124 -13 197 2 324 -141 634 -313 680 -26 7 -44 22 -64
53 -133 201 -383 466 -582 614 -357 266 -734 425 -1170 493 -147 24 -477 34
-613 20z"/>
</g>
</svg>
